<?xml version="1.0" encoding="utf-8"?>
<!-- Generator: Adobe Illustrator 25.2.3, SVG Export Plug-In . SVG Version: 6.00 Build 0)  -->
<svg version="1.1" id="Layer_1" xmlns="http://www.w3.org/2000/svg" xmlns:xlink="http://www.w3.org/1999/xlink" x="0px" y="0px"
	 viewBox="0 0 792 332" style="enable-background:new 0 0 792 332;" xml:space="preserve">
<style type="text/css">
	.st0{fill:#FFFFFF;}
	.st1{fill:none;stroke:#CDDBED;stroke-width:110;stroke-miterlimit:10;}
	.st2{fill:#CDDBED;}
	.st3{fill:#A6B8E5;}
	.st4{fill:none;}
	.st5{font-family:sans-serif; font-weight: 600;}
	.st6{font-size:12px; font-family: sans-serif;}
	.st7{font-family:sans-serif;}
	.st8{font-family:sans-serif;}
</style>
<g id="BKGD">
	<g>
		<path class="st0" d="M15,331.8c-8.1,0-14.8-6.6-14.8-14.8V15C0.2,6.9,6.9,0.2,15,0.2h762c8.1,0,14.8,6.6,14.8,14.8v302
			c0,8.1-6.6,14.8-14.8,14.8H15z"/>
		<path d="M777,0.5c8,0,14.5,6.5,14.5,14.5v302c0,8-6.5,14.5-14.5,14.5H15c-8,0-14.5-6.5-14.5-14.5V15C0.5,7,7,0.5,15,0.5H777
			 M777,0H15C6.7,0,0,6.7,0,15v302c0,8.3,6.7,15,15,15h762c8.3,0,15-6.7,15-15V15C792,6.7,785.3,0,777,0L777,0z"/>
	</g>
</g>
<g id="white_circles">
	<g>
		<g>
			<line class="st1" x1="51" y1="162" x2="139.8" y2="162"/>
			<g>
				<polygon class="st2" points="128.2,75.1 128.2,248.9 215,162 				"/>
			</g>
		</g>
	</g>
	<g>
		<g>
			<line class="st1" x1="255" y1="162" x2="337.8" y2="162"/>
			<g>
				<polygon class="st2" points="326.2,75.1 326.2,248.9 413,162 				"/>
			</g>
		</g>
	</g>
	<g>
		<g>
			<line class="st1" x1="453" y1="162" x2="529.8" y2="162"/>
			<g>
				<polygon class="st2" points="518.2,75.1 518.2,248.9 605,162 				"/>
			</g>
		</g>
	</g>
	<g>
		<g>
			<line class="st1" x1="645" y1="162" x2="710.8" y2="162"/>
			<g>
				<polygon class="st2" points="699.2,75.1 699.2,248.9 786,162 				"/>
			</g>
		</g>
	</g>
	<path class="st0" d="M44,118.3c3.8-1,7.9-1.6,12-1.6c26,0,47,21,47,47s-21,47-47,47c-4.2,0-8.3-0.5-12.1-1.6"/>
	<path class="st0" d="M247.9,118.3c3.9-1,7.9-1.6,12.1-1.6c26,0,47,21,47,47s-21,47-47,47c-4.2,0-8.3-0.5-12.1-1.6"/>
	<path class="st0" d="M446,118.3c3.9-1,7.9-1.6,12-1.6c26,0,47,21,47,47s-21,47-47,47c-4.2,0-8.3-0.5-12.1-1.6"/>
	<path class="st0" d="M638,118.3c3.8-1,7.9-1.6,12-1.6c26,0,47,21,47,47s-21,47-47,47c-4.2,0-8.3-0.5-12.1-1.6"/>
</g>
<g id="Layer_5">
	<circle class="st3" cx="260" cy="163.8" r="44"/>
	<circle class="st3" cx="458" cy="163.8" r="44"/>
	<circle class="st3" cx="650" cy="163.8" r="44"/>
	<circle class="st3" cx="56" cy="163.8" r="44"/>
</g>
<g id="GO_x5F_WW">
	<rect x="106.5" y="127" class="st4" width="85.5" height="86"/>
	<text transform="matrix(1 0 0 1 105.4673 135.8799)" class="st5 st6">Sonia asks:</text>
	<text transform="matrix(1 0 0 1 176.5373 135.8799)" class="st7 st6"> </text>
	<text transform="matrix(1 0 0 1 106.4673 151.8799)" class="st7 st6">Do you ever </text>
	<text transform="matrix(1 0 0 1 106.4673 167.8799)" class="st7 st6">need to take </text>
	<text transform="matrix(1 0 0 1 106.4673 183.8799)" class="st7 st6">medicine to </text>
	<text transform="matrix(1 0 0 1 106.4673 199.8799)" class="st7 st6">be healthy?</text>
	<rect x="310.5" y="136" class="st4" width="77.5" height="92"/>
	<text transform="matrix(1 0 0 1 309.4673 144.8798)" class="st5 st6">Rafael asks:</text>
	<text transform="matrix(1 0 0 1 385.1373 144.8798)" class="st7 st6"> </text>
	<text transform="matrix(1 0 0 1 310.4673 160.8798)" class="st7 st6">Do you use a </text>
	<text transform="matrix(1 0 0 1 310.4673 176.8798)" class="st7 st6">tool to help </text>
	<text transform="matrix(1 0 0 1 310.4673 192.8798)" class="st7 st6">your body?</text>
	<rect x="508.7" y="127" class="st4" width="77.3" height="87"/>
	<text transform="matrix(1 0 0 1 507.7428 135.8798)" class="st5 st6">Anthony </text>
	<text transform="matrix(1 0 0 1 508.7428 151.8798)" class="st5 st6">asks:</text>
	<text transform="matrix(1 0 0 1 540.7928 151.8798)" class="st7 st6"> How </text>
	<text transform="matrix(1 0 0 1 508.7428 167.8798)" class="st7 st6">do you get </text>
	<text transform="matrix(1 0 0 1 508.7428 183.8798)" class="st7 st6">from place </text>
	<text transform="matrix(1 0 0 1 508.7428 199.8798)" class="st7 st6">to place?</text>
	<rect x="15.5" y="142.6" class="st4" width="82.5" height="49.4"/>
	<text transform="matrix(1 0 0 1 39.7415 151.5229)" class="st5 st6">Sonia</text>
	<text transform="matrix(1 0 0 1 39.9715 166.5229)" class="st5 st6">takes </text>
	<text transform="matrix(1 0 0 1 28.0615 181.5229)" class="st5 st6">medicine.</text>
	<rect x="222.6" y="141.1" class="st4" width="76.4" height="62.9"/>
	<text transform="matrix(1 0 0 1 225.4263 150.0078)" class="st5 st6">Rafael takes </text>
	<text transform="matrix(1 0 0 1 232.1163 165.0078)" class="st5 st6">medicine </text>
	<text transform="matrix(1 0 0 1 238.3163 180.0078)" class="st5 st6">with an </text>
	<text transform="matrix(1 0 0 1 238.0863 195.0078)" class="st5 st6">inhaler.</text>
	<rect x="420.5" y="141.6" class="st4" width="77.5" height="56.4"/>
	<text transform="matrix(1 0 0 1 433.2222 150.4775)" class="st5 st6">Anthony </text>
	<text transform="matrix(1 0 0 1 439.7322 165.4775)" class="st5 st6">uses a </text>
	<text transform="matrix(1 0 0 1 425.9222 180.4775)" class="st5 st6">wheelchair. </text>
	<rect x="635.5" y="158.6" class="st4" width="31.5" height="15.4"/>
	<text transform="matrix(1 0 0 1 646.1655 167.4775)" class="st5 st6">?</text>
</g>
</svg>
