<?xml version="1.0" encoding="utf-8"?>
<!-- Generator: Adobe Illustrator 25.2.3, SVG Export Plug-In . SVG Version: 6.00 Build 0)  -->
<svg version="1.1" xmlns="http://www.w3.org/2000/svg" xmlns:xlink="http://www.w3.org/1999/xlink" x="0px" y="0px"
	 viewBox="0 0 792 612" style="enable-background:new 0 0 792 612;" xml:space="preserve">
<style type="text/css">
	.st0{fill:#FFFFFF;}
	.st1{fill:none;}
	.st2{font-family:'Poppins-Bold';}
	.st3{font-size:22px;}
	.st4{font-family:'Poppins-Medium';}
	.st5{letter-spacing:-1;}
</style>
<g id="BKGD">
	<g>
		<path class="st0" d="M15,611.75c-8.13,0-14.75-6.62-14.75-14.75V15C0.25,6.87,6.87,0.25,15,0.25h762
			c8.13,0,14.75,6.62,14.75,14.75v582c0,8.13-6.62,14.75-14.75,14.75H15z"/>
		<path d="M777,0.5c8,0,14.5,6.5,14.5,14.5v582c0,8-6.5,14.5-14.5,14.5H15c-8,0-14.5-6.5-14.5-14.5V15C0.5,7,7,0.5,15,0.5H777
			 M777,0H15C6.72,0,0,6.72,0,15v582c0,8.28,6.72,15,15,15h762c8.28,0,15-6.72,15-15V15C792,6.72,785.28,0,777,0L777,0z"/>
	</g>
</g>
<g id="GO_x5F_WW">
	<g>
		<path d="M273,109c28.65,0,56.43,5.22,82.59,15.51c25.25,9.94,47.93,24.16,67.4,42.27c19.45,18.1,34.72,39.16,45.39,62.62
			C479.41,253.66,485,279.43,485,306s-5.59,52.34-16.63,76.61c-10.66,23.45-25.93,44.52-45.39,62.62
			c-19.47,18.11-42.14,32.33-67.4,42.27C329.43,497.78,301.65,503,273,503c-28.65,0-56.43-5.22-82.59-15.51
			c-25.25-9.94-47.93-24.16-67.4-42.27c-19.45-18.1-34.72-39.16-45.39-62.62C66.59,358.34,61,332.57,61,306s5.59-52.34,16.63-76.61
			c10.66-23.45,25.93-44.52,45.39-62.62c19.47-18.11,42.14-32.33,67.4-42.27C216.57,114.22,244.35,109,273,109 M273,106
			c-118.74,0-215,89.54-215,200s96.26,200,215,200s215-89.54,215-200S391.74,106,273,106L273,106z"/>
	</g>
	<g>
		<path d="M513,109c28.65,0,56.43,5.22,82.59,15.51c25.25,9.94,47.93,24.16,67.4,42.27c19.45,18.1,34.72,39.16,45.39,62.62
			C719.41,253.66,725,279.43,725,306s-5.59,52.34-16.63,76.61c-10.66,23.45-25.93,44.52-45.39,62.62
			c-19.47,18.11-42.14,32.33-67.4,42.27C569.43,497.78,541.65,503,513,503c-28.65,0-56.43-5.22-82.59-15.51
			c-25.25-9.94-47.93-24.16-67.4-42.27c-19.45-18.1-34.72-39.16-45.39-62.62C306.59,358.34,301,332.57,301,306
			s5.59-52.34,16.63-76.61c10.66-23.45,25.93-44.52,45.39-62.62c19.47-18.11,42.14-32.33,67.4-42.27
			C456.57,114.22,484.35,109,513,109 M513,106c-118.74,0-215,89.54-215,200s96.26,200,215,200s215-89.54,215-200S631.74,106,513,106
			L513,106z"/>
	</g>
	<rect x="123.96" y="217.31" class="st1" width="117.04" height="25.69"/>
	<text transform="matrix(1 0 0 1 123.9639 233.5889)" class="st2 st3">Partner 1</text>
	<rect x="343.96" y="217.31" class="st1" width="95.04" height="20.19"/>
	<text transform="matrix(1 0 0 1 365.3022 233.5889)" class="st2 st3">Both</text>
	<rect x="329.96" y="275.31" class="st1" width="147.04" height="120.69"/>
	<text transform="matrix(1 0 0 1 329.9639 291.5889)"><tspan x="0" y="0" class="st4 st3">•</tspan><tspan x="8.54" y="0" class="st4 st3 st5">	</tspan><tspan x="12" y="0" class="st4 st3">I like riding </tspan><tspan x="12" y="29" class="st4 st3">my bike.</tspan><tspan x="0" y="78" class="st4 st3">•</tspan><tspan x="8.54" y="78" class="st4 st3 st5">	</tspan><tspan x="12" y="78" class="st4 st3">I like math.</tspan></text>
	<rect x="112.96" y="275.31" class="st1" width="163.04" height="139.69"/>
	<text transform="matrix(1 0 0 1 112.9639 291.5889)"><tspan x="0" y="0" class="st4 st3">•</tspan><tspan x="8.54" y="0" class="st4 st3 st5">	</tspan><tspan x="12" y="0" class="st4 st3">I am </tspan><tspan x="12" y="29" class="st4 st3">left-handed.</tspan><tspan x="0" y="78" class="st4 st3">•</tspan><tspan x="8.54" y="78" class="st4 st3 st5">	</tspan><tspan x="12" y="78" class="st4 st3">I can run fast.</tspan></text>
	<rect x="512.96" y="275.31" class="st1" width="172.04" height="139.69"/>
	<text transform="matrix(1 0 0 1 512.9639 291.5889)"><tspan x="0" y="0" class="st4 st3">•</tspan><tspan x="8.54" y="0" class="st4 st3 st5">	</tspan><tspan x="12" y="0" class="st4 st3">I am </tspan><tspan x="12" y="29" class="st4 st3">right-handed.</tspan><tspan x="0" y="78" class="st4 st3">•</tspan><tspan x="8.54" y="78" class="st4 st3 st5">	</tspan><tspan x="12" y="78" class="st4 st3">I speak two </tspan><tspan x="12" y="107" class="st4 st3">languages.</tspan></text>
	<rect x="524.96" y="217.31" class="st1" width="109.04" height="25.69"/>
	<text transform="matrix(1 0 0 1 524.9639 233.5889)" class="st2 st3">Partner 2</text>
</g>
<g id="TEXT">
</g>
</svg>
